<?xml version="1.0" encoding="utf-8"?>
<!-- Generator: Adobe Illustrator 20.1.0, SVG Export Plug-In . SVG Version: 6.00 Build 0)  -->
<svg version="1.1" id="Layer_1" xmlns="http://www.w3.org/2000/svg" xmlns:xlink="http://www.w3.org/1999/xlink" x="0px" y="0px"
	 viewBox="0 0 407 354.3" style="enable-background:new 0 0 407 354.3;" xml:space="preserve">
<style type="text/css">
	.st0{opacity:0.15;}
	.st1{clip-path:url(#SVGID_2_);}
	.st2{fill:#F3BA81;}
	.st3{opacity:0.22;}
	.st4{clip-path:url(#SVGID_4_);}
	.st5{fill:#F0CAA6;}
	.st6{fill:#FFFFFF;}
	.st7{fill:#E09B63;}
	.st8{fill:#E3853E;}
	.st9{fill:#FCB549;}
	.st10{opacity:0.6;}
	.st11{fill:url(#SVGID_5_);}
	.st12{fill:#454C53;}
	.st13{fill:url(#SVGID_6_);}
	.st14{fill:url(#SVGID_7_);}
	.st15{fill:url(#SVGID_8_);}
	.st16{fill:#459C18;}
	.st17{fill:#459C18;stroke:#FFFFFF;stroke-width:2;stroke-miterlimit:10;}
</style>
<g>
	<g>
		<g class="st0">
			<g>
				<g>
					<g>
						<g>
							<defs>
								<rect id="SVGID_1_" x="82.4" y="96.2" width="232.8" height="236.4"/>
							</defs>
							<clipPath id="SVGID_2_">
								<use xlink:href="#SVGID_1_"  style="overflow:visible;"/>
							</clipPath>
							<g class="st1">
								<path class="st2" d="M315.2,214.4c0-65.3-52.1-118.2-116.4-118.2S82.4,149.1,82.4,214.4s52.1,118.2,116.4,118.2
									C263.1,332.5,315.2,279.6,315.2,214.4"/>
							</g>
						</g>
					</g>
				</g>
			</g>
		</g>
	</g>
	<g>
		<g class="st3">
			<g>
				<g>
					<g>
						<g>
							<defs>
								<rect id="SVGID_3_" x="98.4" y="112.4" width="200.9" height="204"/>
							</defs>
							<clipPath id="SVGID_4_">
								<use xlink:href="#SVGID_3_"  style="overflow:visible;"/>
							</clipPath>
							<g class="st4">
								<path class="st2" d="M299.3,214.4c0-56.3-45-102-100.5-102s-100.5,45.7-100.5,102s45,102,100.5,102
									C254.3,316.3,299.3,270.7,299.3,214.4"/>
							</g>
						</g>
					</g>
				</g>
			</g>
		</g>
	</g>
	<path class="st2" d="M284,214.4c0-47.8-38.1-86.5-85.2-86.5c-47,0-85.2,38.7-85.2,86.5s38.1,86.5,85.2,86.5
		C245.9,300.8,284,262.1,284,214.4"/>
	<path class="st5" d="M237.2,200.7c0-32.7-26.1-59.2-58.3-59.2s-58.3,26.5-58.3,59.2s26.1,59.2,58.3,59.2
		C211,259.9,237.2,233.4,237.2,200.7"/>
	<path class="st6" d="M230.1,194.9c0-6.4-5.1-11.5-11.3-11.5c-6.3,0-11.3,5.1-11.3,11.5s5.1,11.5,11.3,11.5S230.1,201.2,230.1,194.9
		"/>
	<path class="st6" d="M209.6,203.3c0-2.4-1.9-4.3-4.3-4.3c-2.4,0-4.3,1.9-4.3,4.3s1.9,4.3,4.3,4.3
		C207.7,207.6,209.6,205.7,209.6,203.3"/>
	<path class="st5" d="M236.9,149.6h-26.6c-2.1,0-3.7-1.7-3.7-3.8s1.7-3.8,3.7-3.8h26.6c2.1,0,3.7,1.7,3.7,3.8
		C240.6,147.9,239,149.6,236.9,149.6"/>
	<path class="st7" d="M114.4,225.4c5.3,42.5,41.1,75.4,84.5,75.4c47,0,85.2-38.7,85.2-86.5c0-14.8-3.7-28.8-10.2-41
		C245.9,311.7,128.5,278.1,114.4,225.4"/>
	<path class="st2" d="M160.8,151.1c4.5,0.1,8.2,3.8,8.1,8.4c0,4.6-3.8,8.3-8.3,8.2s-8.2-3.8-8.1-8.4
		C152.6,154.7,156.3,151,160.8,151.1"/>
	<path class="st7" d="M159.6,167.6c-4-0.6-7.1-4.1-7.1-8.3c0.1-4.6,3.8-8.3,8.3-8.2c1.4,0,2.7,0.4,3.9,1
		C151.6,154.7,154.6,166.2,159.6,167.6"/>
	<path class="st2" d="M142.4,163.5c6.8,0.1,12.2,5.7,12.1,12.6c-0.1,6.9-5.6,12.4-12.4,12.3c-6.8-0.1-12.2-5.7-12.1-12.6
		C130,169,135.6,163.5,142.4,163.5"/>
	<path class="st7" d="M140.5,188.3c-6-0.9-10.6-6.1-10.6-12.5c0.1-6.9,5.6-12.4,12.4-12.3c2.1,0,4.1,0.6,5.8,1.6
		C128.5,168.9,133.1,186.2,140.5,188.3"/>
	<path class="st2" d="M183.2,244.6c3.4,0,6.1,2.8,6,6.3c0,3.4-2.8,6.2-6.2,6.1c-3.4,0-6.1-2.8-6-6.3
		C177.1,247.3,179.8,244.6,183.2,244.6"/>
	<path class="st7" d="M182.3,257c-3-0.4-5.3-3.1-5.3-6.2c0-3.4,2.8-6.2,6.2-6.1c1,0,2,0.3,2.9,0.8
		C176.3,247.3,178.6,255.9,182.3,257"/>
	<path class="st2" d="M198.2,231.9c4.9,0.1,8.8,4.1,8.7,9s-4,8.9-8.9,8.8c-4.9-0.1-8.8-4.1-8.7-9
		C189.4,235.8,193.4,231.8,198.2,231.9"/>
	<path class="st7" d="M196.9,249.7c-4.3-0.6-7.6-4.4-7.6-8.9c0.1-4.9,4-8.9,8.9-8.8c1.5,0,2.9,0.4,4.2,1.1
		C188.3,235.8,191.6,248.1,196.9,249.7"/>
	<path class="st5" d="M203.7,276.1h-49c-2.8,0-5-2.3-5-5.1s2.2-5.1,5-5.1h49c2.8,0,5,2.3,5,5.1S206.4,276.1,203.7,276.1"/>
	<path class="st5" d="M274.3,219.6h-49c-2.3,0-4.2-1.9-4.2-4.2s1.9-4.2,4.2-4.2h49c2.3,0,4.2,1.9,4.2,4.2
		C278.4,217.7,276.6,219.6,274.3,219.6"/>
	<path class="st8" d="M279.5,186.8c0.5,1.6,1,3.2,1.5,4.8v0.1l0.1,0.4c0.4,1.6,0.8,3.2,1.2,4.8v0.1c10.5,2.1,15.6,6,15.6,10.9
		c0,13.2-44.3,31.1-99.1,39.9c-54.7,8.8-99.1,5.3-99.1-7.9c0-4.4,14.6-14.2,14.6-14.2l-0.4-4l-0.3-3.6c0,0,0-3.3,0.1-4.7
		c-25.6,9.7-41.8,22-41.8,31c0,16.9,56.8,21.4,126.9,10.1c70.1-11.3,126.9-34.2,126.9-51.1C325.7,193.7,308.3,187.8,279.5,186.8
		L279.5,186.8z"/>
	<path class="st9" d="M273.6,172.6c0.2,0.4,0.4,0.9,0.7,1.3c0.3,0.6,0.6,1.2,0.9,1.8c0.3,0.7,0.7,1.4,1,2.2c0.3,0.6,0.5,1.1,0.7,1.7
		c0.2,0.4,0.3,0.7,0.5,1.1l0.1,0.3c0.3,0.7,0.6,1.4,0.9,2.1c47.9-2.8,61-4.2,61,12.6c0,23.3-63.2,54.8-141.1,70.4
		s-141.1,9.4-141.1-13.9c0-16,13.3-28.9,57.3-44.9c0.5-2.8,1-5.6,1.6-8.3c0.1-0.4,0.2-0.9,0.3-1.3c0.2-0.8,0.4-1.6,0.6-2.3l0,0
		C52.4,216,23.3,237,23.3,259c0,28.9,78.4,36.6,175,17.2c96.6-19.3,175-58.4,175-87.2C373.2,165.8,343.1,165.6,273.6,172.6
		L273.6,172.6z"/>
	<g>
		<g>
			<g class="st10">
				
					<radialGradient id="SVGID_5_" cx="-642.022" cy="-89.8261" r="0.5649" gradientTransform="matrix(39.5592 -11.9413 3.1727 10.5104 25847.25 -6535.5137)" gradientUnits="userSpaceOnUse">
					<stop  offset="0" style="stop-color:#14141A"/>
					<stop  offset="0.62" style="stop-color:#000000;stop-opacity:0.4471"/>
					<stop  offset="1" style="stop-color:#000000;stop-opacity:0"/>
				</radialGradient>
				<path class="st11" d="M195,175.8c2.5,8.3-9.4,19.3-26.6,24.4c-17.2,5.2-33.2,2.7-35.7-5.6s10.5-15.7,27.7-20.9
					S192.5,167.5,195,175.8L195,175.8z"/>
			</g>
		</g>
		<path class="st12" d="M114.6,37.7c0.2,0.7,0.2,0.6,1.5,0.5s0.2-1.6,0.2-1.6L114.6,37.7z"/>
		<path class="st12" d="M124.2,34.8c0.2,0.7,0.2,0.6-1,1.2c-1.1,0.6-1-1.2-1-1.2H124.2z"/>
		<path class="st12" d="M166.8,175.9c-0.2-0.7-0.2-0.6-1.5-0.5s-0.2,1.6-0.2,1.6L166.8,175.9L166.8,175.9z"/>
		<path class="st12" d="M157.2,178.8c-0.2-0.7-0.2-0.6,1-1.2c1.1-0.6,1,1.2,1,1.2H157.2L157.2,178.8z"/>
		
			<linearGradient id="SVGID_6_" gradientUnits="userSpaceOnUse" x1="-627.9802" y1="-87.0336" x2="-627.4159" y2="-87.0336" gradientTransform="matrix(15.5601 -4.6969 3.4425 11.4045 10208.541 -1845.0732)">
			<stop  offset="0" style="stop-color:#7A7A7E"/>
			<stop  offset="0.37" style="stop-color:#DEDEDF"/>
			<stop  offset="0.5" style="stop-color:#D4D4D5"/>
			<stop  offset="0.71" style="stop-color:#838385"/>
			<stop  offset="1" style="stop-color:#B5B5B7"/>
		</linearGradient>
		<path class="st13" d="M114.7,36.4l45.7,151.5c0,0,1.1,0.1,4.6-1s4.1-1.7,4.1-1.7L123.5,33.8c0,0-0.4-0.8-4.5,0.4
			C114.9,35.5,114.7,36.4,114.7,36.4L114.7,36.4z"/>
		<g transform="matrix(0.992925,-5.51184e-17,0,0.986714,1.42109e-14,-2.84217e-14)">
			
				<image style="overflow:visible;enable-background:new    ;" width="75" height="48" id="_Image5" xlink:href="E8FE6781FB04D6E5.png"  transform="matrix(0.1726 0 0 0.1715 112.6301 32.6673)">
			</image>
		</g>
		
			<linearGradient id="SVGID_7_" gradientUnits="userSpaceOnUse" x1="-630.514" y1="-86.1324" x2="-629.9496" y2="-86.1324" gradientTransform="matrix(17.5051 -5.2841 3.8729 12.83 11484.7607 -2190.4517)">
			<stop  offset="0" style="stop-color:#7A7A7E"/>
			<stop  offset="0.37" style="stop-color:#DEDEDF"/>
			<stop  offset="0.5" style="stop-color:#D4D4D5"/>
			<stop  offset="0.71" style="stop-color:#838385"/>
			<stop  offset="1" style="stop-color:#B5B5B7"/>
		</linearGradient>
		<path class="st14" d="M113.7,35.3l0.8,2.8c0,0,1.3-1.3,4.8-2.4c3.6-1.1,5-0.6,5-0.6l-0.8-2.8c0,0-0.7-0.9-5.3,0.5
			C113.7,34.2,113.7,35.3,113.7,35.3L113.7,35.3z"/>
		
			<linearGradient id="SVGID_8_" gradientUnits="userSpaceOnUse" x1="-671.0504" y1="-145.0079" x2="-670.486" y2="-145.0079" gradientTransform="matrix(-17.5051 5.2841 -3.8729 -12.83 -12140.0186 1865.9755)">
			<stop  offset="0" style="stop-color:#B5B5B7"/>
			<stop  offset="0.28" style="stop-color:#838385"/>
			<stop  offset="0.53" style="stop-color:#DBDBDC"/>
			<stop  offset="0.9" style="stop-color:#9D9DA0"/>
			<stop  offset="1" style="stop-color:#7A7A7E"/>
		</linearGradient>
		<path class="st15" d="M162,177.8c-3.6,1.1-5,0.6-5,0.6l2.8,9.2c0,0,0.7,0.9,5.3-0.5s4.6-2.5,4.6-2.5l-2.8-9.2
			C166.8,175.4,165.5,176.8,162,177.8z"/>
		<path class="st16" d="M212.3,88.3c0.6,2-1.1,4.4-3.9,5.2L77.2,133.1c-2.8,0.8-5.5-0.1-6.1-2.2l-17.8-59c-0.6-2,1.1-4.4,3.9-5.2
			l131.2-39.6c2.8-0.8,5.5,0.1,6.1,2.2L212.3,88.3z"/>
		<path class="st17" d="M206.7,86.1c0.6,2-1.1,4.4-3.9,5.2L81,128.1c-2.8,0.8-5.5-0.1-6.1-2.2L59.2,73.8c-0.6-2,1.1-4.4,3.9-5.2
			l121.8-36.8c2.8-0.8,5.5,0.1,6.1,2.2L206.7,86.1L206.7,86.1z"/>
	</g>
	<g>
		<path class="st6" d="M68.1,84.7l-0.7-8.6l2.6-0.8l0.2,1.9l4.1-1.2l0.2,1.9l-4.1,1.2l0.2,2.5l5.6-1.7l0.2,2.3L68.1,84.7L68.1,84.7z
			 M67.2,75.3L67,73l8.2-2.5l0.2,2.3L67.2,75.3z"/>
		<path class="st6" d="M80.8,80.9l-4.4-10.7l2.6-0.8l3.1,7.9l1.7-9.3l2.5-0.7L83.6,80L80.8,80.9L80.8,80.9z"/>
		<path class="st6" d="M88.3,78.6L87.6,70l2.6-0.8l0.2,1.9l4.1-1.2l0.2,1.9L90.5,73l0.2,2.5l5.6-1.7l0.2,2.3L88.3,78.6z M87.5,69.1
			l-0.2-2.3l8.2-2.5l0.2,2.3L87.5,69.1z"/>
		<path class="st6" d="M106.3,73.1l-6.4-6l0.7,7.7l-2.3,0.7l-1-11.7l2.3-0.7l5.6,5.5l-0.6-7l2.3-0.7l1,11.7L106.3,73.1L106.3,73.1z"
			/>
		<path class="st6" d="M114.4,70.6l-2.5,0.8l-0.8-9.4l-2.7,0.8l-0.2-2.3l7.8-2.4l0.2,2.3l-2.7,0.8L114.4,70.6z"/>
		<path class="st6" d="M118.4,69.4l-0.2-2.3l5.9-1.8c0.2-0.1,0.3-0.1,0.4-0.2s0.1-0.3,0.1-0.5l-0.1-1.6c0,0,0-0.1,0-0.2
			c-0.1-0.2-0.2-0.3-0.5-0.2l-4.3,1.3c-0.4,0.1-0.8,0.1-1.1,0c-0.3-0.1-0.4-0.4-0.5-0.7c0-0.1-0.1-0.3-0.1-0.5l-0.3-3
			c-0.1-0.7,0-1.2,0.3-1.7c0.2-0.4,0.7-0.7,1.4-1l6.9-2.1l0.2,2.2l-5.8,1.8c-0.2,0.1-0.3,0.1-0.3,0.2c-0.1,0.1-0.1,0.3-0.1,0.5
			l0.1,1.5v0.1v0.1c0,0.2,0.2,0.2,0.4,0.1l4.4-1.3c0.5-0.1,0.8-0.1,1.1,0c0.3,0.1,0.4,0.4,0.5,0.7c0,0.1,0.1,0.3,0.1,0.5l0.3,3.2
			c0.1,0.7,0,1.2-0.3,1.7c-0.2,0.4-0.7,0.7-1.4,0.9L118.4,69.4z"/>
		<path class="st6" d="M133.4,64.8l-0.2-2.3l5.9-1.8c0.2-0.1,0.3-0.1,0.4-0.2c0.1-0.1,0.1-0.3,0.1-0.5l-0.1-1.6c0,0,0-0.1,0-0.2
			c-0.1-0.2-0.2-0.3-0.5-0.2l-4.3,1.3c-0.4,0.1-0.8,0.1-1.1,0s-0.4-0.4-0.5-0.7c0-0.1-0.1-0.3-0.1-0.5l-0.3-3
			c-0.1-0.7,0-1.2,0.3-1.7c0.2-0.4,0.7-0.7,1.4-1l6.9-2.1l0.2,2.2l-5.8,1.8c-0.2,0.1-0.3,0.1-0.3,0.2c-0.1,0.1-0.1,0.3-0.1,0.5
			l0.1,1.5v0.1v0.1c0,0.2,0.2,0.2,0.4,0.1l4.4-1.3c0.5-0.1,0.8-0.1,1.1,0s0.4,0.4,0.5,0.7c0,0.1,0.1,0.3,0.1,0.5l0.3,3.2
			c0.1,0.7,0,1.2-0.3,1.7c-0.2,0.4-0.7,0.7-1.4,0.9L133.4,64.8L133.4,64.8z"/>
		<path class="st6" d="M145.8,61.1c-0.6,0.2-1,0.2-1.3,0.1c-0.3-0.1-0.5-0.4-0.6-0.8c-0.1-0.2-0.1-0.5-0.1-0.8L143,52
			c-0.1-0.7,0-1.2,0.3-1.7c0.2-0.4,0.7-0.7,1.4-0.9l5.5-1.7c0.6-0.2,1-0.2,1.3-0.1c0.3,0.1,0.5,0.4,0.6,0.8c0,0.1,0.1,0.2,0.1,0.3
			s0,0.3,0.1,0.4l0.7,7.6c0.1,0.7,0,1.3-0.3,1.7c-0.2,0.4-0.7,0.7-1.4,0.9L145.8,61.1L145.8,61.1z M149.9,50.8c0-0.1,0-0.1,0-0.2
			v-0.1c-0.1-0.2-0.3-0.3-0.7-0.2l-3.1,0.9c-0.2,0.1-0.4,0.2-0.4,0.3c-0.1,0.1-0.1,0.3-0.1,0.6l0.5,5.8c0,0.1,0,0.2,0,0.2
			c0.1,0.2,0.3,0.3,0.6,0.2l3.1-0.9c0.3-0.1,0.4-0.2,0.5-0.3s0.1-0.3,0.1-0.5L149.9,50.8L149.9,50.8z"/>
		<path class="st6" d="M161.5,51.5l0.4,4.7l-2.6,0.8l-0.7-8.6l2.6-0.8l0.2,1.9l4.2-1.3l0.2,2L161.5,51.5L161.5,51.5z M158.5,47.5
			l-0.2-2.3l8.2-2.5l0.2,2.3L158.5,47.5L158.5,47.5z"/>
		<path class="st6" d="M174.4,52.3l-0.6-1.7l-4,1.2l-0.3,2l-2.4,0.7l2.4-12.8l3.2-1l4.2,10.8L174.4,52.3L174.4,52.3z M171.2,43.7
			l-1.1,6.1l3-0.9C173.1,48.9,171.2,43.7,171.2,43.7z"/>
		<path class="st6" d="M184.7,49.2l-0.3-3.8c0-0.1,0-0.1,0-0.1v-0.1c-0.1-0.2-0.2-0.2-0.5-0.1l-3.6,1.1l0.4,4.4l-2.5,0.8l-0.7-8.6
			L180,42l0.2,2.3l3.4-1c0.2-0.1,0.4-0.2,0.4-0.3c0.1-0.1,0.1-0.3,0.1-0.5l-0.2-1.9c0-0.1,0-0.1,0-0.2v-0.1c0-0.1-0.1-0.2-0.2-0.2
			c-0.1,0-0.2,0-0.4,0.1l-5.8,1.8l-0.2-2.3l7-2.1c0.6-0.2,1-0.2,1.3-0.1c0.3,0.1,0.5,0.4,0.7,0.8c0,0.1,0.1,0.2,0.1,0.3s0,0.2,0,0.4
			l0.2,2.5c0.1,0.6,0,1.1-0.3,1.4c-0.2,0.3-0.5,0.6-0.9,0.7c0.4-0.1,0.7-0.1,1,0s0.5,0.3,0.6,0.6c0,0.1,0,0.1,0.1,0.2
			c0,0.1,0,0.1,0,0.2l0.4,4.1L184.7,49.2L184.7,49.2z"/>
	</g>
</g>
</svg>
