<?xml version="1.0" encoding="UTF-8" standalone="no"?><!DOCTYPE svg PUBLIC "-//W3C//DTD SVG 1.1//EN" "http://www.w3.org/Graphics/SVG/1.1/DTD/svg11.dtd"><svg width="100%" height="100%" viewBox="0 0 100 100" version="1.1" xmlns="http://www.w3.org/2000/svg" xmlns:xlink="http://www.w3.org/1999/xlink" xml:space="preserve" style="fill-rule:evenodd;clip-rule:evenodd;stroke-linejoin:round;stroke-miterlimit:1.41421;"><g id="Robot"><path d="M27.765,59.214l-2.936,-0.357c0.039,0.916 0.197,1.764 0.379,2.078c0.235,0.138 1.084,0.333 2.314,0.553l0.243,-2.274Z" style="fill:#e4e5e5;fill-rule:nonzero;"/><path d="M41.973,57.703c-1.081,-0.228 -2.365,-0.472 -3.747,-0.706l-0.288,2.699l3.774,0.458l0.261,-2.451Z" style="fill:#e4e5e5;fill-rule:nonzero;"/><path d="M36.865,62.709l0.252,-2.361l-4.034,-0.489l-0.224,2.105c-0.015,0.132 -0.099,0.235 -0.211,0.29c1.366,0.178 2.807,0.349 4.221,0.499c0,-0.015 -0.005,-0.029 -0.004,-0.044" style="fill:#e4e5e5;fill-rule:nonzero;"/><path d="M32.247,62.201c-0.089,-0.077 -0.144,-0.19 -0.131,-0.317l0.226,-2.115l-3.836,-0.466l-0.245,2.299c0,0.004 -0.003,0.008 -0.004,0.012c1.139,0.189 2.513,0.391 3.99,0.587" style="fill:#e4e5e5;fill-rule:nonzero;"/><path d="M28.586,58.561l3.835,0.466l0.302,-2.824c-0.877,-0.101 -1.741,-0.188 -2.566,-0.253c-0.473,-0.037 -0.898,-0.064 -1.284,-0.082l-0.287,2.693Z" style="fill:#e4e5e5;fill-rule:nonzero;"/><path d="M27.844,58.472l0.281,-2.631c-1.938,-0.044 -2.553,0.162 -2.738,0.274c-0.177,0.107 -0.336,0.43 -0.437,0.888c-0.073,0.333 -0.113,0.712 -0.126,1.102l3.02,0.367Z" style="fill:#e4e5e5;fill-rule:nonzero;"/><path d="M33.464,56.292l-0.302,2.825l4.034,0.489l0.292,-2.732c-1.303,-0.213 -2.672,-0.413 -4.024,-0.582" style="fill:#e4e5e5;fill-rule:nonzero;"/><path d="M42.453,60.244l3.246,0.393c0.038,0.005 0.073,0.021 0.106,0.036c-0.036,-0.974 -0.308,-1.832 -0.628,-2.101c-0.195,-0.147 -1.114,-0.407 -2.47,-0.71l-0.254,2.382Z" style="fill:#e4e5e5;fill-rule:nonzero;"/><path d="M19.279,80.383c0.624,0.092 1.335,0.195 2.119,0.305c0.005,0.002 0.01,0 0.016,0.001c0.002,0 0.003,0.002 0.005,0.002c0.897,0.127 1.887,0.263 2.947,0.404l1.391,-4.544c-1.497,-0.234 -2.838,-0.462 -3.93,-0.656l-2.548,4.488Z" style="fill:#059192;fill-rule:nonzero;"/><path d="M31.625,88.158c-0.432,-0.287 -0.835,-0.55 -1.21,-0.795c-2.975,-1.943 -4.333,-2.829 -4.362,-5.229c-0.001,-0.02 0.007,-0.036 0.01,-0.055c-1.611,-0.207 -3.11,-0.412 -4.423,-0.597c-0.109,0.929 -0.141,3.486 2.466,4.968c0.566,0.322 1.25,0.664 1.973,1.025c2.783,1.391 6.335,3.169 7.19,5.834c0.407,-1.874 0.281,-3.875 -1.644,-5.151" style="fill:#f37b32;fill-rule:nonzero;"/><path d="M46.555,77.975l0.688,4.953c0.969,-0.039 1.827,-0.114 2.536,-0.235l-1.171,-5.062c-0.606,0.144 -1.291,0.258 -2.053,0.344" style="fill:#059192;fill-rule:nonzero;"/><path d="M41.785,83.605c-0.154,4.796 -4.357,9.133 -6.908,11.331c3.575,-1.531 10.191,-5.166 10.183,-11.086c0,-0.051 0.011,-0.1 0.029,-0.144c-1.035,-0.008 -2.144,-0.043 -3.304,-0.101" style="fill:#f37b32;fill-rule:nonzero;"/><path d="M59.51,65.714l-3.959,-0.153c-0.306,0.111 -1.909,0.752 -2.583,2.282c-0.477,1.081 -0.399,2.383 0.232,3.874l1.214,-0.337c-0.053,-0.622 -0.056,-1.95 0.742,-2.79c0.556,-0.585 1.371,-0.813 2.425,-0.68c1.139,0.145 1.906,0.579 2.28,1.291c0.418,0.794 0.213,1.713 0.031,2.236l1.794,0.485c0.243,-0.88 0.778,-3.298 -0.135,-4.861c-0.422,-0.724 -1.091,-1.164 -2.041,-1.347" style="fill:#5fc7d6;fill-rule:nonzero;"/><path d="M46.728,49.165c-1.97,2.101 -5.93,4.423 -10.607,4.055l-0.002,0c-2.331,-0.184 -4.524,-1.013 -6.52,-2.464c-3.446,-2.507 -5.218,-7.554 -4.213,-12.001c0.869,-3.846 3.593,-6.467 7.473,-7.191c1.033,-0.193 2.194,-0.241 3.451,-0.142c3.377,0.266 6.816,1.534 8.909,2.633c1.44,0.756 2.653,3.115 3.166,6.156c0.497,2.944 0.322,6.843 -1.657,8.954m-0.228,12.579c-0.147,1.082 -0.569,1.834 -1.189,2.117c-0.183,0.083 -0.669,0.305 -4.892,-0.027l-0.001,0c-3.602,-0.284 -15.204,-1.558 -15.806,-2.445c-0.501,-0.738 -0.705,-3.117 -0.391,-4.546c0.151,-0.686 0.413,-1.146 0.781,-1.367c0.247,-0.149 0.999,-0.601 5.214,-0.27c5.496,0.433 14.588,2.078 15.441,2.795c0.76,0.638 1.025,2.404 0.843,3.743m2.11,-33.904c-4.176,1.154 -7.95,1.354 -11.129,1.104c-6.374,-0.501 -10.357,-2.809 -10.416,-2.844c-0.062,-0.037 -0.103,-0.091 -0.134,-0.15c-1.154,1.178 -2.247,2.684 -3.272,4.519c-6.972,12.486 -8.483,36.069 -4.525,44.168c1.336,0.262 9.93,1.914 17.903,2.542c5.227,0.411 9.114,0.306 11.56,-0.312c0.896,-2.68 10.717,-33.032 1.564,-47.03c-0.472,-0.722 -0.991,-1.385 -1.551,-1.997" style="fill:#5fc7d6;fill-rule:nonzero;"/><path d="M57.951,55.334c-2.415,0.063 -3.809,2.535 -3.824,2.562c-0.058,0.106 -0.162,0.166 -0.273,0.182c-0.029,0.191 -0.059,0.383 -0.089,0.575c0.026,0.005 0.053,0.005 0.078,0.016c0.761,0.321 1.234,1.213 1.532,2.238c0.817,-2.345 2.015,-4.582 2.576,-5.573" style="fill:#059192;fill-rule:nonzero;"/><path d="M44.4,47.58c-1.506,1.607 -4.534,3.382 -8.109,3.101l-0.001,0c-1.783,-0.14 -3.461,-0.774 -4.987,-1.884c-2.638,-1.92 -3.995,-5.783 -3.227,-9.185c0.667,-2.951 2.757,-4.962 5.734,-5.518c0.791,-0.148 1.678,-0.184 2.639,-0.108c2.571,0.202 5.19,1.168 6.784,2.005c1.334,0.699 2.138,2.901 2.446,4.729c0.38,2.252 0.244,5.237 -1.279,6.86m0.472,-12.864c-2.027,-1.064 -5.356,-2.293 -8.62,-2.55c-1.192,-0.093 -2.288,-0.049 -3.257,0.132c-3.573,0.666 -6.081,3.08 -6.881,6.621c-0.942,4.17 0.708,8.894 3.924,11.233c1.883,1.369 3.949,2.151 6.14,2.324l0.001,0c4.414,0.347 8.147,-1.842 10.004,-3.822c1.478,-1.575 2.053,-4.841 1.466,-8.319c-0.468,-2.774 -1.558,-4.98 -2.777,-5.619" style="fill:#f37b32;fill-rule:nonzero;"/><path d="M25.116,81.194c1.401,0.184 2.904,0.373 4.461,0.556l0.794,-4.533c-1.351,-0.177 -2.654,-0.365 -3.869,-0.55l-1.386,4.527Z" style="fill:#059192;fill-rule:nonzero;"/><path d="M45.625,61.38c-0.006,0 -0.011,-0.001 -0.016,-0.002l-3.235,-0.392l-0.237,2.217c2.356,0.134 2.795,0.01 2.864,-0.021c0.373,-0.171 0.65,-0.732 0.76,-1.539c0.013,-0.097 0.022,-0.195 0.03,-0.292c-0.052,0.021 -0.107,0.034 -0.166,0.029" style="fill:#e4e5e5;fill-rule:nonzero;"/><path d="M41.633,60.896l-3.774,-0.458l-0.251,2.35c-0.002,0.015 -0.01,0.026 -0.013,0.04c0.995,0.101 1.968,0.19 2.882,0.262l0.001,0c0.33,0.026 0.629,0.047 0.913,0.066l0.242,-2.26Z" style="fill:#e4e5e5;fill-rule:nonzero;"/><path d="M36.795,45.741c-1.4,-0.11 -2.41,-1.8 -2.255,-3.774c0.155,-1.974 1.417,-3.485 2.818,-3.375c1.401,0.11 2.411,1.8 2.255,3.774c-0.155,1.974 -1.417,3.485 -2.818,3.375m6.091,-9.09c-1.528,-0.802 -4.037,-1.728 -6.496,-1.921c-0.895,-0.071 -1.717,-0.037 -2.443,0.098c-2.671,0.498 -4.545,2.302 -5.143,4.948c-0.706,3.125 0.53,6.665 2.939,8.417c1.412,1.028 2.962,1.615 4.605,1.744l0.001,0c3.312,0.261 6.113,-1.381 7.507,-2.867c1.1,-1.174 1.527,-3.618 1.087,-6.226c-0.344,-2.043 -1.171,-3.728 -2.057,-4.193" style="fill:#fff;fill-rule:nonzero;"/><path d="M30.319,81.836c2.049,0.236 4.171,0.459 6.25,0.643l-0.148,-4.602c-1.777,-0.15 -3.575,-0.347 -5.309,-0.565l-0.793,4.524Z" style="fill:#059192;fill-rule:nonzero;"/><path d="M54.054,56.7c0.688,-0.848 1.981,-2.035 3.819,-2.104c-1.119,-2.491 -2.55,-3.89 -3.171,-4.414c-0.12,2.066 -0.335,4.239 -0.648,6.518" style="fill:#059192;fill-rule:nonzero;"/><path d="M58.429,56.012c-0.565,1.026 -1.525,2.878 -2.234,4.814c0.757,-0.083 2.058,-0.129 3.16,0.289c-0.095,-1.992 -0.448,-3.685 -0.926,-5.103" style="fill:#059192;fill-rule:nonzero;"/><path d="M59.378,61.929c-0.005,-0.002 -0.011,-0.002 -0.016,-0.004c-1.435,-0.709 -3.627,-0.279 -3.649,-0.275c-0.053,0.01 -0.105,0.006 -0.155,-0.005c0.257,1.246 0.306,2.537 0.311,3.182l3.358,0.129c0.117,-1.075 0.161,-2.081 0.151,-3.027" style="fill:#059192;fill-rule:nonzero;"/><path d="M37.17,77.937l0.148,4.606c1.637,0.138 3.238,0.25 4.745,0.322l-0.161,-4.656c-0.001,-0.016 0.006,-0.03 0.007,-0.045c-1.434,-0.019 -3.014,-0.095 -4.739,-0.227" style="fill:#059192;fill-rule:nonzero;"/><path d="M42.648,78.183l0.163,4.715c1.324,0.054 2.566,0.074 3.682,0.052l-0.682,-4.902c-0.951,0.08 -2.006,0.121 -3.167,0.121c0.001,0.005 0.003,0.009 0.004,0.014" style="fill:#059192;fill-rule:nonzero;"/><path d="M21.048,75.756c-0.917,-0.167 -1.592,-0.296 -1.949,-0.366l-2.122,4.647c0.342,0.053 0.856,0.131 1.511,0.229l2.56,-4.51Z" style="fill:#059192;fill-rule:nonzero;"/><path d="M27.445,25.458c0.085,0.05 8.549,4.929 20.568,1.765c-2.648,-2.582 -6.166,-4.063 -10.507,-4.404c-1.421,-0.112 -2.954,-0.104 -4.556,0.024c-1.959,0.157 -3.801,1.032 -5.513,2.612c0.003,0.002 0.006,0.002 0.008,0.003" style="fill:#f37b32;fill-rule:nonzero;"/><path d="M30.823,86.738c0.377,0.246 0.781,0.51 1.215,0.798c2.033,1.348 2.326,3.386 2.1,5.155c1.032,-2.475 1.978,-6.044 0.977,-9.522c-0.007,-0.022 -0.003,-0.043 -0.005,-0.065c-2.839,-0.27 -5.702,-0.601 -8.309,-0.931c0.043,1.964 1.136,2.681 4.022,4.565" style="fill:#f37b32;fill-rule:nonzero;"/><path d="M35.885,83.176c1.212,4.543 -0.569,9.061 -1.809,11.448c2.41,-2.04 6.824,-6.401 6.966,-11.059c-0.963,-0.054 -1.955,-0.122 -2.964,-0.201c-0.724,-0.057 -1.457,-0.12 -2.193,-0.188" style="fill:#f37b32;fill-rule:nonzero;"/><path d="M13.846,57.495c-0.411,-2.219 -0.994,-4.306 -1.278,-5.269c-0.757,1.422 -1.42,3.097 -1.855,5.051c1.145,-0.228 2.407,0.021 3.133,0.218" style="fill:#059192;fill-rule:nonzero;"/><path d="M14.19,58.384c-0.022,-0.008 -2.113,-0.772 -3.639,-0.302c-0.174,0.945 -0.295,1.949 -0.349,3.018l3.336,0.397c0.107,-0.636 0.357,-1.904 0.805,-3.094c-0.051,0.003 -0.103,-0.001 -0.153,-0.019" style="fill:#059192;fill-rule:nonzero;"/><path d="M16.454,55.749c0.023,-0.342 0.049,-0.686 0.077,-1.031c-0.052,-0.043 -0.097,-0.096 -0.12,-0.165c-0.034,-0.102 -0.78,-2.242 -3.141,-2.583c0.299,1.01 0.947,3.325 1.37,5.731c0.445,-0.945 1.038,-1.733 1.814,-1.952" style="fill:#059192;fill-rule:nonzero;"/><path d="M16.649,53.4c0.232,-2.388 0.57,-4.81 1.015,-7.195c-0.991,0.726 -2.881,2.337 -4.517,5.007c1.876,0.192 2.956,1.34 3.502,2.188" style="fill:#059192;fill-rule:nonzero;"/><path d="M13.738,62.272l-3.935,-0.468c-0.967,0.032 -1.697,0.363 -2.228,1.012c-1.147,1.405 -0.994,3.873 -0.892,4.779l1.848,-0.198c-0.098,-0.545 -0.156,-1.485 0.38,-2.204c0.481,-0.645 1.307,-0.954 2.454,-0.918c1.067,0.034 1.832,0.387 2.289,1.051c0.657,0.954 0.447,2.265 0.297,2.871l1.146,0.522c0.857,-1.374 1.137,-2.647 0.836,-3.79c-0.428,-1.616 -1.91,-2.5 -2.195,-2.657" style="fill:#5fc7d6;fill-rule:nonzero;"/><path d="M36.536,39.455c-0.605,-0.047 -1.134,0.405 -1.182,1.009c-0.048,0.606 0.404,1.135 1.009,1.182c0.605,0.048 1.134,-0.404 1.182,-1.009c0.047,-0.605 -0.404,-1.134 -1.009,-1.182" style="fill:#779daa;fill-rule:nonzero;"/><path d="M38.389,25.942c0.955,-0.931 2.041,-1.753 3.215,-2.39c-1.272,-0.371 -2.637,-0.618 -4.098,-0.733c-1.421,-0.112 -2.954,-0.104 -4.556,0.024c-1.959,0.157 -3.801,1.032 -5.513,2.612c0.003,0.002 0.006,0.001 0.008,0.003c0.054,0.032 3.485,2.006 9.053,2.637c0.582,-0.758 1.205,-1.484 1.891,-2.153" style="fill:#f05623;fill-rule:nonzero;"/><path d="M25.565,74.865c-1.104,-4.505 -1.425,-9.171 -1.117,-13.805c-0.377,-0.961 -0.504,-2.957 -0.227,-4.217c0.151,-0.686 0.414,-1.146 0.781,-1.367c0.032,-0.02 0.074,-0.044 0.129,-0.072c0.119,-0.681 0.247,-1.361 0.39,-2.036c0.395,-1.857 0.881,-3.69 1.444,-5.501c-1.627,-2.62 -2.28,-6.011 -1.579,-9.112c0.869,-3.846 3.593,-6.467 7.473,-7.191c0.455,-0.085 0.94,-0.137 1.443,-0.166c0.524,-0.894 1.081,-1.769 1.682,-2.61c-5.494,-0.705 -8.865,-2.656 -8.919,-2.688c-0.062,-0.037 -0.103,-0.091 -0.134,-0.15c-1.155,1.178 -2.247,2.684 -3.272,4.519c-6.972,12.485 -8.483,36.069 -4.525,44.167c0.682,0.135 3.259,0.631 6.677,1.168c-0.084,-0.312 -0.169,-0.625 -0.246,-0.939" style="fill:#56b3c1;fill-rule:nonzero;"/><path d="M30.947,50.752c-0.405,-0.563 -0.78,-1.15 -1.144,-1.738c-0.876,-1.418 -1.718,-2.889 -2.11,-4.508c-0.693,-2.868 0.143,-5.998 1.943,-8.334c1.415,-1.836 3.378,-3.195 5.541,-4.048c-0.78,-0.006 -1.513,0.049 -2.181,0.174c-3.573,0.667 -6.082,3.08 -6.882,6.621c-0.942,4.17 0.708,8.894 3.924,11.233c0.298,0.217 0.602,0.413 0.909,0.6" style="fill:#f05623;fill-rule:nonzero;"/><path d="M41.947,48.394c-1.564,0.298 -3.189,0.017 -4.696,-0.493c-2.019,-0.682 -3.932,-1.805 -5.272,-3.462c-1.34,-1.656 -2.051,-3.885 -1.611,-5.969c0.247,-1.172 0.894,-2.265 1.787,-3.056c-1.71,0.836 -2.897,2.356 -3.351,4.362c-0.706,3.125 0.53,6.665 2.939,8.417c1.412,1.028 2.962,1.615 4.605,1.744l0.001,0c2.401,0.189 4.531,-0.623 6.053,-1.65c-0.151,0.039 -0.302,0.077 -0.455,0.107" style="fill:#e4e5e5;fill-rule:nonzero;"/><path d="M41.963,61.911c0.639,-0.071 1.304,-0.151 1.843,-0.499c0.541,-0.348 0.91,-1.052 0.666,-1.647c-0.149,-0.361 -0.484,-0.608 -0.819,-0.808c-3.225,-1.927 -7.322,-1.078 -11.035,-1.652c-1.738,-0.268 -3.525,-0.859 -5.212,-0.362c-0.648,0.19 -1.346,0.753 -1.16,1.402c0.124,0.43 0.579,0.66 0.989,0.84c1.002,0.44 2.003,0.88 3.005,1.319c1.169,0.514 2.345,1.029 3.584,1.341c2.646,0.665 5.427,0.368 8.139,0.066" style="fill:#fff;fill-rule:nonzero;"/><path d="M54.113,53.05c0,0 3.69,5.437 3.528,12.256l-1.772,-0.479c0,0 -0.606,-2.609 -0.882,-3.848c-0.277,-1.238 -1.714,-2.006 -1.714,-2.006l0.84,-5.923Z" style="fill:#007b7c;fill-rule:nonzero;"/><path d="M17.168,50.424c0,0 -2.122,1.986 -3.286,4.889c-1.164,2.903 -1.8,6.222 -1.8,6.222l1.746,0.418c0,0 0.591,-2.761 0.921,-3.39c0.33,-0.629 1.972,-2.465 1.972,-2.465l0.447,-5.674Z" style="fill:#007b7c;fill-rule:nonzero;"/><path d="M61.551,67.061c0,0 -2.229,-1.716 -4.742,-0.697c-2.513,1.018 -3.526,3.185 -2.864,5.483l-1.06,0.384c0,0 -1.575,-3.773 0.253,-5.595c1.828,-1.821 8.088,-2.271 8.413,0.425" style="fill:#56b3c1;fill-rule:nonzero;"/><path d="M9.456,61.609c0,0 3.49,0.836 4.974,3.386c1.484,2.55 -0.113,3.828 -0.113,3.828l1.001,0.359c0,0 1.634,-1.743 1.266,-4.205c-0.368,-2.462 -2.397,-4.025 -7.128,-3.368" style="fill:#56b3c1;fill-rule:nonzero;"/><path d="M26.502,76.667c0,0 7.031,6.02 16.904,6.61c0,0 -16.991,-1.711 -20.16,-1.867c-3.169,-0.155 -6.932,-1.107 -6.932,-1.107l2.571,-5.319l7.617,1.683Z" style="fill:#007b7c;fill-rule:nonzero;"/><path d="M42.17,90.666c0,0 3.227,-4.144 1.318,-4.856c-1.909,-0.712 -2.958,1.92 -2.958,1.92c0,0 -0.567,-3.507 -2.17,-3.353c-1.603,0.155 -2.432,3.552 -2.432,3.552c0,0 -1.668,-3.781 -4.015,-3.685c-2.347,0.097 -0.29,2.504 0.63,3.887c0.921,1.382 2.004,4.275 1.407,5.913c-0.597,1.637 -0.96,0.298 -0.96,0.298c0,0 -0.074,-2.626 -2.512,-3.753c-2.438,-1.128 -5.561,-3.058 -6.998,-3.826c-1.437,-0.768 -2.057,-2.408 -2.199,-2.981c-0.142,-0.572 -0.081,-2.533 -0.081,-2.533c0,0 21.132,2.598 24.238,2.375c0,0 0.464,4.809 -3.268,7.042" style="fill:#f05623;fill-rule:nonzero;"/><path d="M41.865,23.17c0,0 8.579,3.95 10.94,16.769c2.36,12.819 -4.902,37.328 -4.902,37.328l0.694,-0.4c0,0 3.36,-5.925 5.198,-22.158c1.839,-16.232 -1.175,-27.886 -11.93,-31.539" style="fill:#fff;fill-rule:nonzero;"/><path d="M46.183,48.654c1.478,-1.575 2.053,-4.841 1.466,-8.319c-0.468,-2.774 -1.558,-4.98 -2.777,-5.619c-1.185,-0.622 -2.816,-1.299 -4.618,-1.806c2.148,0.814 4.713,2.073 5.609,3.676c1.64,2.936 1.517,8.073 0.683,10.347c-0.484,1.321 -1.931,2.846 -3.322,3.967c1.223,-0.672 2.235,-1.474 2.959,-2.246" style="fill:#fff;fill-rule:nonzero;"/><path d="M54.683,50.568c0,0 3.476,4.578 4.021,8.364c0.544,3.786 -0.047,6.547 -0.047,6.547l0.959,-0.298c0,0 0.76,-4.901 -0.443,-8.645c-1.203,-3.744 -4.417,-6.898 -4.417,-6.898l-0.073,0.93Z" style="fill:#fff;fill-rule:nonzero;"/><path d="M47.903,77.267l1.328,5.719l1.031,-0.012l-1.429,-5.634l-0.93,-0.073Z" style="fill:#fff;fill-rule:nonzero;"/><path d="M43.516,88.595c-1.935,1.534 -6.393,5.013 -8.63,6.337c2.495,-1.07 6.461,-3.162 8.63,-6.337" style="fill:#fff;fill-rule:nonzero;"/><path d="M39.613,42.366c-0.155,1.974 -1.417,3.485 -2.818,3.375c-1.401,-0.11 -2.41,-1.8 -2.255,-3.774c0.155,-1.974 1.417,-3.485 2.818,-3.375c1.401,0.11 2.411,1.8 2.255,3.774" style="fill:#211f1f;fill-rule:nonzero;"/><path d="M37.545,40.637c-0.048,0.605 -0.577,1.057 -1.182,1.009c-0.605,-0.047 -1.056,-0.576 -1.009,-1.181c0.048,-0.605 0.577,-1.057 1.182,-1.009c0.605,0.047 1.056,0.576 1.009,1.181" style="fill:#fff;fill-rule:nonzero;"/><path d="M19.134,74.637c1.336,0.262 9.93,1.914 17.903,2.542c5.227,0.411 9.114,0.306 11.56,-0.312c0.895,-2.681 10.717,-33.032 1.564,-47.03c-2.755,-4.213 -7.013,-6.574 -12.655,-7.018c-1.421,-0.112 -2.954,-0.104 -4.556,0.024c-3.495,0.28 -6.621,2.846 -9.291,7.626c-6.972,12.486 -8.483,36.069 -4.525,44.168m17.846,3.286l-0.001,0c-8.677,-0.683 -18.077,-2.571 -18.171,-2.59c-0.112,-0.023 -0.207,-0.095 -0.259,-0.196c-4.133,-8.091 -2.657,-32.29 4.458,-45.032c2.799,-5.011 6.124,-7.705 9.884,-8.006c1.641,-0.131 3.213,-0.139 4.674,-0.024c5.884,0.463 10.333,2.937 13.221,7.354c4.093,6.261 5.075,16.228 2.916,29.625c-1.602,9.94 -4.435,18.164 -4.463,18.246c-0.041,0.116 -0.136,0.205 -0.255,0.237c-2.515,0.685 -6.554,0.815 -12.004,0.386" style="fill:#211f1f;fill-rule:nonzero;"/><path d="M37.481,28.944c-6.374,-0.501 -10.357,-2.809 -10.416,-2.844c-0.177,-0.105 -0.236,-0.334 -0.131,-0.511c0.106,-0.178 0.335,-0.235 0.511,-0.131c0.087,0.051 8.773,5.066 21.048,1.64c0.198,-0.055 0.405,0.06 0.46,0.259c0.055,0.199 -0.061,0.405 -0.259,0.46c-4.21,1.175 -8.013,1.379 -11.213,1.127" style="fill:#211f1f;fill-rule:nonzero;"/><path d="M36.252,32.166c-1.192,-0.093 -2.288,-0.049 -3.256,0.132c-3.573,0.666 -6.082,3.08 -6.882,6.621c-0.942,4.17 0.708,8.894 3.924,11.233c1.882,1.369 3.948,2.151 6.14,2.324l0.001,0c4.414,0.347 8.147,-1.842 10.004,-3.822c1.478,-1.575 2.053,-4.841 1.466,-8.319c-0.468,-2.774 -1.558,-4.98 -2.777,-5.619c-2.027,-1.064 -5.356,-2.293 -8.62,-2.55m-0.131,21.054l-0.002,0c-2.33,-0.184 -4.524,-1.013 -6.52,-2.464c-3.446,-2.507 -5.218,-7.554 -4.213,-12.001c0.869,-3.846 3.593,-6.467 7.473,-7.191c1.033,-0.193 2.194,-0.24 3.451,-0.142c3.377,0.266 6.816,1.534 8.909,2.633c1.44,0.756 2.653,3.114 3.166,6.156c0.497,2.944 0.322,6.843 -1.657,8.954c-1.97,2.101 -5.93,4.423 -10.607,4.055" style="fill:#211f1f;fill-rule:nonzero;"/><path d="M36.39,34.73c-0.895,-0.071 -1.717,-0.038 -2.443,0.098c-2.671,0.498 -4.545,2.301 -5.143,4.948c-0.706,3.125 0.53,6.665 2.939,8.417c1.412,1.028 2.962,1.615 4.605,1.744l0.001,0c3.312,0.261 6.113,-1.382 7.507,-2.867c1.1,-1.174 1.527,-3.617 1.087,-6.226c-0.344,-2.043 -1.171,-3.728 -2.057,-4.193c-1.528,-0.802 -4.037,-1.728 -6.496,-1.921m-0.099,15.951l-0.001,0c-1.783,-0.14 -3.461,-0.774 -4.987,-1.884c-2.638,-1.92 -3.995,-5.783 -3.227,-9.186c0.667,-2.951 2.757,-4.961 5.734,-5.517c0.79,-0.148 1.678,-0.184 2.639,-0.108c2.571,0.202 5.191,1.168 6.784,2.005c1.334,0.699 2.138,2.901 2.447,4.729c0.379,2.252 0.242,5.237 -1.28,6.861c-1.506,1.606 -4.534,3.381 -8.109,3.1" style="fill:#211f1f;fill-rule:nonzero;"/><path d="M25.208,60.935c0.832,0.488 9.295,1.685 15.269,2.155l0.001,0c3.835,0.302 4.44,0.13 4.523,0.092c0.373,-0.171 0.65,-0.731 0.76,-1.539c0.18,-1.325 -0.16,-2.714 -0.584,-3.071c-0.632,-0.478 -8.87,-2.138 -15.02,-2.622c-3.589,-0.282 -4.532,0.021 -4.77,0.165c-0.177,0.106 -0.336,0.43 -0.437,0.888c-0.292,1.327 -0.051,3.399 0.258,3.932m15.211,2.899l-0.001,0c-3.602,-0.284 -15.204,-1.558 -15.806,-2.446c-0.501,-0.738 -0.705,-3.116 -0.391,-4.545c0.151,-0.686 0.413,-1.146 0.781,-1.368c0.247,-0.148 0.999,-0.6 5.214,-0.269c5.496,0.433 14.588,2.078 15.441,2.795c0.76,0.638 1.025,2.404 0.843,3.743c-0.147,1.082 -0.569,1.834 -1.189,2.117c-0.183,0.083 -0.669,0.305 -4.892,-0.027" style="fill:#211f1f;fill-rule:nonzero;"/><path d="M45.625,61.38c-0.006,0 -0.011,-0.001 -0.016,-0.002l-21.119,-2.562c-0.204,-0.025 -0.35,-0.21 -0.325,-0.415c0.025,-0.205 0.215,-0.347 0.415,-0.326l21.119,2.562c0.204,0.025 0.35,0.211 0.325,0.416c-0.024,0.199 -0.201,0.343 -0.399,0.327" style="fill:#211f1f;fill-rule:nonzero;"/><path d="M27.861,61.934l-0.011,-0.001c-0.205,-0.022 -0.353,-0.205 -0.331,-0.411l0.635,-5.955c0.023,-0.205 0.208,-0.337 0.411,-0.331c0.205,0.022 0.353,0.205 0.332,0.411l-0.636,5.955c-0.022,0.201 -0.2,0.348 -0.4,0.332" style="fill:#211f1f;fill-rule:nonzero;"/><path d="M32.458,62.296l-0.011,-0.001c-0.204,-0.021 -0.353,-0.205 -0.331,-0.411l0.636,-5.955c0.022,-0.205 0.204,-0.337 0.411,-0.331c0.205,0.022 0.353,0.205 0.331,0.411l-0.636,5.955c-0.021,0.201 -0.199,0.348 -0.4,0.332" style="fill:#211f1f;fill-rule:nonzero;"/><path d="M37.208,63.121l-0.011,-0.001c-0.205,-0.022 -0.353,-0.206 -0.332,-0.411l0.636,-5.956c0.022,-0.204 0.199,-0.357 0.411,-0.331c0.205,0.022 0.353,0.206 0.331,0.411l-0.635,5.955c-0.022,0.202 -0.2,0.348 -0.4,0.333" style="fill:#211f1f;fill-rule:nonzero;"/><path d="M41.695,63.924l-0.01,0c-0.205,-0.022 -0.354,-0.206 -0.332,-0.412l0.636,-5.955c0.022,-0.204 0.208,-0.355 0.411,-0.331c0.205,0.022 0.353,0.206 0.331,0.411l-0.636,5.955c-0.021,0.201 -0.199,0.348 -0.4,0.332" style="fill:#211f1f;fill-rule:nonzero;"/><path d="M38.078,83.364c-9.732,-0.766 -20.993,-2.553 -21.704,-2.666c-0.115,-0.018 -0.215,-0.089 -0.27,-0.192c-0.055,-0.103 -0.059,-0.226 -0.01,-0.332l2.448,-5.362c0.086,-0.188 0.307,-0.269 0.495,-0.184c0.187,0.085 0.27,0.307 0.184,0.494l-2.244,4.915c3.56,0.551 25.634,3.872 32.802,2.657l-1.256,-5.433c-0.047,-0.201 0.078,-0.401 0.279,-0.447c0.2,-0.048 0.401,0.078 0.447,0.279l1.345,5.811c0.023,0.098 0.005,0.201 -0.049,0.285c-0.054,0.085 -0.14,0.144 -0.238,0.165c-2.537,0.529 -7.178,0.407 -12.229,0.01" style="fill:#211f1f;fill-rule:nonzero;"/><path d="M32.726,96.512c-0.092,-0.008 -0.18,-0.049 -0.245,-0.12c-0.097,-0.106 -0.125,-0.257 -0.072,-0.391c1.508,-3.774 -3.023,-6.039 -6.663,-7.858c-0.733,-0.367 -1.425,-0.712 -2.009,-1.045c-3.649,-2.073 -2.779,-6.088 -2.77,-6.128c0.046,-0.201 0.247,-0.33 0.447,-0.281c0.201,0.046 0.326,0.245 0.281,0.446c-0.032,0.143 -0.748,3.519 2.411,5.315c0.566,0.322 1.25,0.664 1.973,1.025c3.498,1.749 8.216,4.106 7.258,8.072c2.612,-0.946 11.732,-4.747 11.723,-11.697c0,-0.206 0.167,-0.374 0.373,-0.374c0.207,0.001 0.373,0.167 0.374,0.373c0.011,8.624 -12.414,12.488 -12.943,12.648c-0.045,0.014 -0.092,0.018 -0.138,0.015" style="fill:#211f1f;fill-rule:nonzero;"/><path d="M32.726,96.512c-0.085,-0.007 -0.169,-0.043 -0.234,-0.108c-0.127,-0.127 -0.146,-0.328 -0.044,-0.476c0.045,-0.065 4.452,-6.556 2.667,-12.759c-0.057,-0.198 0.057,-0.405 0.255,-0.462c0.197,-0.055 0.405,0.057 0.462,0.255c1.328,4.614 -0.496,9.238 -1.756,11.662c2.454,-2.077 6.989,-6.561 6.973,-11.314c-0.001,-0.206 0.166,-0.374 0.372,-0.375c0.208,0.006 0.374,0.166 0.375,0.372c0.022,6.876 -8.465,12.886 -8.826,13.139c-0.074,0.051 -0.16,0.072 -0.244,0.066" style="fill:#211f1f;fill-rule:nonzero;"/><path d="M32.725,96.522c-0.205,-0.016 -0.358,-0.206 -0.341,-0.412c0.009,-0.114 0.056,-0.239 0.191,-0.584c0.898,-2.297 1.778,-5.56 -0.95,-7.368c-0.432,-0.287 -0.835,-0.55 -1.21,-0.795c-2.975,-1.942 -4.333,-2.829 -4.363,-5.229c-0.002,-0.206 0.163,-0.376 0.369,-0.378c0.212,-0.004 0.375,0.162 0.378,0.368c0.024,2.002 1.113,2.714 4.024,4.614c0.377,0.246 0.781,0.51 1.215,0.798c3.544,2.35 1.804,6.8 1.232,8.262c-0.063,0.16 -0.134,0.342 -0.145,0.392c-0.016,0.206 -0.194,0.349 -0.4,0.332" style="fill:#211f1f;fill-rule:nonzero;"/><path d="M18.624,81.101c-0.053,-0.004 -0.105,-0.019 -0.154,-0.047c-0.18,-0.101 -0.242,-0.33 -0.141,-0.509l2.876,-5.066c0.102,-0.179 0.33,-0.243 0.509,-0.14c0.179,0.101 0.242,0.329 0.14,0.508l-2.876,5.067c-0.074,0.13 -0.214,0.198 -0.354,0.187" style="fill:#211f1f;fill-rule:nonzero;"/><path d="M46.903,83.776c-0.171,-0.013 -0.316,-0.144 -0.34,-0.32l-0.791,-5.693c-0.029,-0.204 0.114,-0.392 0.318,-0.421c0.203,-0.027 0.392,0.114 0.421,0.319l0.791,5.692c0.029,0.204 -0.114,0.393 -0.318,0.421c-0.028,0.004 -0.055,0.004 -0.081,0.002" style="fill:#211f1f;fill-rule:nonzero;"/><path d="M24.659,81.689c-0.027,-0.002 -0.053,-0.007 -0.08,-0.015c-0.197,-0.061 -0.308,-0.269 -0.248,-0.466l1.515,-4.949c0.061,-0.196 0.271,-0.304 0.467,-0.247c0.197,0.06 0.307,0.269 0.247,0.466l-1.515,4.948c-0.052,0.17 -0.215,0.276 -0.386,0.263" style="fill:#211f1f;fill-rule:nonzero;"/><path d="M42.417,83.536c-0.186,-0.015 -0.336,-0.168 -0.343,-0.359l-0.172,-4.968c-0.007,-0.206 0.154,-0.379 0.36,-0.386c0.211,-0.013 0.379,0.154 0.386,0.36l0.172,4.968c0.007,0.206 -0.154,0.379 -0.36,0.386c-0.015,0.001 -0.029,0 -0.043,-0.001" style="fill:#211f1f;fill-rule:nonzero;"/><path d="M29.91,82.214c-0.011,0 -0.023,-0.002 -0.035,-0.004c-0.203,-0.035 -0.339,-0.229 -0.303,-0.432l0.817,-4.665c0.036,-0.203 0.224,-0.343 0.432,-0.303c0.203,0.035 0.339,0.228 0.303,0.431l-0.817,4.666c-0.034,0.191 -0.207,0.322 -0.397,0.307" style="fill:#211f1f;fill-rule:nonzero;"/><path d="M36.925,83.217c-0.187,-0.015 -0.338,-0.168 -0.344,-0.36l-0.163,-5.081c-0.006,-0.206 0.155,-0.378 0.361,-0.385c0.207,-0.006 0.379,0.156 0.385,0.362l0.163,5.08c0.007,0.205 -0.155,0.378 -0.361,0.385c-0.014,0 -0.028,0 -0.041,-0.001" style="fill:#211f1f;fill-rule:nonzero;"/><path d="M55.465,65.558c-0.195,-0.016 -0.347,-0.181 -0.343,-0.379c0.035,-1.98 -0.361,-5.312 -1.569,-5.823c-0.19,-0.08 -0.279,-0.299 -0.198,-0.489c0.08,-0.19 0.297,-0.279 0.489,-0.198c1.827,0.773 2.014,4.832 2.025,6.158l3.358,0.129c1.18,-10.825 -4.775,-14.978 -4.836,-15.019c-0.17,-0.115 -0.216,-0.347 -0.101,-0.517c0.115,-0.171 0.346,-0.218 0.517,-0.102c0.267,0.178 6.524,4.509 5.122,16.069c-0.024,0.193 -0.191,0.336 -0.385,0.328l-4.063,-0.157c-0.005,0.001 -0.011,0 -0.016,0" style="fill:#211f1f;fill-rule:nonzero;"/><path d="M59.498,61.962c-0.046,-0.004 -0.092,-0.015 -0.136,-0.037c-1.434,-0.709 -3.627,-0.279 -3.649,-0.275c-0.132,0.026 -0.266,-0.019 -0.354,-0.119c-0.088,-0.1 -0.116,-0.239 -0.074,-0.365c0.818,-2.438 2.085,-4.804 2.666,-5.832c-2.415,0.063 -3.809,2.535 -3.824,2.562c-0.1,0.18 -0.327,0.245 -0.507,0.147c-0.18,-0.099 -0.246,-0.326 -0.147,-0.506c0.075,-0.137 1.873,-3.335 5.155,-2.913c0.125,0.017 0.232,0.095 0.287,0.209c0.055,0.113 0.048,0.246 -0.017,0.354c-0.017,0.029 -1.644,2.745 -2.703,5.639c0.836,-0.092 2.337,-0.144 3.497,0.429c0.185,0.092 0.261,0.315 0.17,0.5c-0.07,0.141 -0.216,0.219 -0.364,0.207" style="fill:#211f1f;fill-rule:nonzero;"/><path d="M52.96,72.534c-0.131,-0.01 -0.251,-0.09 -0.309,-0.215c-0.843,-1.819 -0.965,-3.429 -0.363,-4.785c0.885,-1.996 3.006,-2.677 3.096,-2.705c0.197,-0.062 0.404,0.049 0.467,0.245c0.061,0.196 -0.048,0.406 -0.245,0.468c-0.018,0.006 -1.895,0.615 -2.638,2.301c-0.477,1.081 -0.399,2.383 0.232,3.873l1.214,-0.336c-0.053,-0.622 -0.056,-1.95 0.742,-2.79c0.556,-0.584 1.371,-0.813 2.425,-0.68c1.139,0.145 1.906,0.579 2.281,1.291c0.417,0.794 0.212,1.713 0.03,2.236l1.794,0.485c0.243,-0.88 0.778,-3.298 -0.135,-4.861c-0.426,-0.73 -1.1,-1.172 -2.062,-1.352c-0.202,-0.038 -0.335,-0.233 -0.298,-0.435c0.038,-0.202 0.228,-0.339 0.436,-0.298c1.171,0.219 2.036,0.794 2.57,1.71c1.298,2.226 0.145,5.666 0.096,5.812c-0.064,0.186 -0.262,0.289 -0.451,0.239l-2.554,-0.69c-0.109,-0.029 -0.199,-0.106 -0.244,-0.21c-0.046,-0.103 -0.042,-0.221 0.01,-0.321c0.005,-0.011 0.578,-1.151 0.145,-1.97c-0.254,-0.482 -0.831,-0.784 -1.712,-0.895c-0.803,-0.105 -1.407,0.05 -1.79,0.454c-0.656,0.69 -0.588,2.026 -0.507,2.484c0.034,0.189 -0.082,0.373 -0.267,0.424l-1.834,0.508c-0.043,0.012 -0.086,0.016 -0.129,0.013" style="fill:#211f1f;fill-rule:nonzero;"/><path d="M13.823,62.282c-0.005,0 -0.01,-0.001 -0.015,-0.002l-4.038,-0.48c-0.193,-0.023 -0.336,-0.19 -0.329,-0.384c0.421,-11.617 8.463,-16.278 8.544,-16.324c0.178,-0.101 0.406,-0.038 0.508,0.141c0.101,0.179 0.037,0.407 -0.141,0.509c-0.077,0.043 -7.602,4.427 -8.15,15.358l3.336,0.397c0.219,-1.308 1.038,-5.288 2.964,-5.766c0.202,-0.05 0.402,0.073 0.452,0.272c0.05,0.201 -0.072,0.403 -0.272,0.452c-1.274,0.317 -2.185,3.545 -2.461,5.507c-0.027,0.196 -0.203,0.335 -0.398,0.32" style="fill:#211f1f;fill-rule:nonzero;"/><path d="M10.402,58.1c-0.148,-0.012 -0.28,-0.111 -0.327,-0.261c-0.061,-0.197 0.049,-0.406 0.245,-0.468c1.238,-0.385 2.716,-0.096 3.525,0.124c-0.557,-3.017 -1.438,-5.8 -1.447,-5.829c-0.036,-0.115 -0.015,-0.241 0.057,-0.338c0.073,-0.096 0.187,-0.152 0.308,-0.149c3.31,0.094 4.347,3.11 4.357,3.141c0.064,0.195 -0.042,0.406 -0.238,0.471c-0.195,0.064 -0.407,-0.042 -0.471,-0.238c-0.034,-0.103 -0.78,-2.242 -3.141,-2.583c0.31,1.048 0.997,3.501 1.418,6.002c0.022,0.131 -0.028,0.264 -0.131,0.349c-0.102,0.085 -0.242,0.109 -0.367,0.063c-0.021,-0.008 -2.121,-0.776 -3.648,-0.3c-0.046,0.015 -0.094,0.02 -0.14,0.016" style="fill:#211f1f;fill-rule:nonzero;"/><path d="M15.206,69.564c-0.042,-0.003 -0.085,-0.014 -0.125,-0.033l-1.732,-0.788c-0.175,-0.08 -0.26,-0.279 -0.198,-0.461c0.005,-0.016 0.537,-1.595 -0.113,-2.535c-0.316,-0.457 -0.889,-0.703 -1.696,-0.726c-0.888,-0.028 -1.504,0.179 -1.831,0.616c-0.555,0.741 -0.168,1.957 -0.164,1.969c0.035,0.107 0.02,0.224 -0.041,0.319c-0.061,0.095 -0.161,0.157 -0.273,0.169l-2.631,0.282c-0.196,0.02 -0.374,-0.113 -0.408,-0.307c-0.026,-0.151 -0.627,-3.73 1.004,-5.725c0.67,-0.821 1.615,-1.254 2.806,-1.288c0.207,-0.003 0.378,0.157 0.383,0.363c0.006,0.206 -0.157,0.377 -0.362,0.383c-0.979,0.028 -1.715,0.36 -2.249,1.014c-1.148,1.405 -0.995,3.873 -0.893,4.779l1.849,-0.198c-0.099,-0.545 -0.157,-1.485 0.379,-2.204c0.481,-0.645 1.307,-0.954 2.454,-0.918c1.067,0.035 1.832,0.386 2.289,1.051c0.657,0.954 0.446,2.265 0.297,2.871l1.146,0.522c0.856,-1.374 1.138,-2.647 0.835,-3.79c-0.471,-1.781 -2.229,-2.676 -2.246,-2.685c-0.184,-0.092 -0.26,-0.316 -0.168,-0.5c0.091,-0.184 0.315,-0.26 0.499,-0.169c0.084,0.042 2.073,1.046 2.635,3.156c0.382,1.433 0.01,3.005 -1.107,4.669c-0.076,0.114 -0.208,0.174 -0.339,0.164" style="fill:#211f1f;fill-rule:nonzero;"/></g><path d="M55.158,28.424c0.909,-0.075 1.712,0.57 1.79,1.441c0.079,0.87 -0.595,1.638 -1.504,1.714c-0.91,0.075 -1.712,-0.57 -1.791,-1.441c-0.079,-0.87 0.595,-1.638 1.505,-1.714Zm4.418,-5.025c1.447,0 2.622,1.125 2.622,2.51c0,1.385 -1.175,2.509 -2.622,2.509c-1.447,0 -2.621,-1.124 -2.621,-2.509c0,-1.385 1.174,-2.51 2.621,-2.51Zm16.705,-21.838c11.929,0 21.614,5.199 21.614,11.602c0,6.404 -9.685,11.603 -21.614,11.603c-11.929,0 -21.614,-5.199 -21.614,-11.603c0,-6.403 9.685,-11.602 21.614,-11.602Z" style="fill:#fcb549;"/><g><path d="M65.472,7.625l-1.309,-0.101l-0.297,3.862l-0.928,-0.071l0.297,-3.862l-1.303,-0.1l0.054,-0.706l3.54,0.272l-0.054,0.706Z" style="fill-rule:nonzero;"/><path d="M67.38,9.033l-0.339,-0.035c-0.138,-0.011 -0.253,0.009 -0.347,0.059c-0.093,0.049 -0.167,0.124 -0.221,0.222l-0.176,2.294l-0.925,-0.071l0.261,-3.395l0.861,0.066l0.003,0.506c0.094,-0.172 0.209,-0.303 0.344,-0.392c0.136,-0.09 0.288,-0.128 0.455,-0.115c0.047,0.003 0.089,0.01 0.128,0.021c0.039,0.01 0.078,0.022 0.117,0.036l-0.161,0.804Z" style="fill-rule:nonzero;"/><path d="M69.088,10.354l0.023,0.191l0.02,0.002l0.823,-2.108l0.997,0.076l-1.694,3.796c-0.116,0.235 -0.264,0.43 -0.444,0.583c-0.18,0.153 -0.438,0.217 -0.772,0.192c-0.079,-0.006 -0.151,-0.018 -0.216,-0.036c-0.066,-0.018 -0.146,-0.042 -0.239,-0.072l0.159,-0.66c0.027,0.006 0.056,0.013 0.088,0.019c0.031,0.007 0.06,0.011 0.085,0.013c0.153,0.012 0.273,-0.016 0.361,-0.084c0.089,-0.068 0.159,-0.156 0.212,-0.263l0.129,-0.255l-0.96,-3.485l0.998,0.076l0.43,2.015Z" style="fill-rule:nonzero;"/><path d="M73.659,12.138l-0.928,-0.072l0.26,-3.394l0.928,0.071l-0.26,3.395Zm0.322,-4.207l-0.927,-0.072l0.052,-0.687l0.928,0.072l-0.053,0.687Z" style="fill-rule:nonzero;"/><path d="M75.848,8.055l-0.064,0.831l0.578,0.045l-0.049,0.643l-0.578,-0.045l-0.133,1.729c-0.01,0.132 0.01,0.228 0.061,0.289c0.051,0.06 0.123,0.094 0.216,0.102c0.049,0.003 0.091,0.004 0.126,0.001c0.035,-0.002 0.077,-0.008 0.124,-0.017l0.029,0.668c-0.096,0.024 -0.188,0.041 -0.279,0.05c-0.09,0.009 -0.187,0.009 -0.291,0.001c-0.319,-0.025 -0.559,-0.13 -0.718,-0.317c-0.16,-0.187 -0.225,-0.469 -0.196,-0.845l0.133,-1.732l-0.502,-0.038l0.049,-0.643l0.502,0.038l0.064,-0.831l0.928,0.071Z" style="fill-rule:nonzero;"/><path d="M79.422,9.166l0.004,0.489c0.128,-0.165 0.279,-0.289 0.454,-0.372c0.174,-0.084 0.366,-0.117 0.573,-0.101c0.348,0.026 0.61,0.155 0.789,0.385c0.178,0.23 0.25,0.576 0.214,1.036l-0.162,2.121l-0.931,-0.072l0.162,-2.117c0.018,-0.228 -0.017,-0.394 -0.102,-0.496c-0.086,-0.102 -0.224,-0.161 -0.412,-0.175c-0.123,-0.009 -0.235,0.007 -0.336,0.048c-0.101,0.042 -0.188,0.105 -0.261,0.19l-0.189,2.463l-0.928,-0.071l0.261,-3.395l0.864,0.067Z" style="fill-rule:nonzero;"/><path d="M81.976,11.037c0.039,-0.506 0.214,-0.91 0.524,-1.211c0.311,-0.301 0.72,-0.432 1.226,-0.393c0.508,0.039 0.894,0.23 1.157,0.574c0.264,0.345 0.376,0.771 0.337,1.279l-0.005,0.066c-0.039,0.51 -0.215,0.915 -0.526,1.214c-0.312,0.299 -0.721,0.429 -1.227,0.39c-0.509,-0.039 -0.894,-0.23 -1.156,-0.573c-0.263,-0.343 -0.374,-0.77 -0.335,-1.28l0.005,-0.066Zm0.919,0.137c-0.023,0.31 0.013,0.562 0.108,0.758c0.096,0.195 0.267,0.303 0.513,0.321c0.239,0.019 0.422,-0.062 0.547,-0.242c0.126,-0.179 0.2,-0.423 0.224,-0.73l0.005,-0.066c0.023,-0.301 -0.014,-0.551 -0.112,-0.75c-0.097,-0.199 -0.267,-0.308 -0.508,-0.326c-0.24,-0.019 -0.422,0.063 -0.548,0.246c-0.126,0.183 -0.201,0.424 -0.224,0.723l-0.005,0.066Z" style="fill-rule:nonzero;"/><path d="M88.742,12.074l0.019,0.001l0.615,-2.146l0.871,0.067l-1.134,3.328l-0.775,-0.06l-0.484,-2.069l-0.019,-0.002l-0.794,1.972l-0.772,-0.06l-0.613,-3.461l0.87,0.067l0.288,2.209l0.019,0.001l0.809,-2.125l0.619,0.048l0.481,2.23Z" style="fill-rule:nonzero;"/><path d="M91.566,11.928l-0.928,-0.071l0.23,-2.993l0.927,0.071l-0.229,2.993Zm-0.121,1.575l-0.928,-0.072l0.062,-0.803l0.928,0.071l-0.062,0.804Z" style="fill-rule:nonzero;"/><path d="M66.033,18.015l-0.928,-0.071l0.35,-4.568l0.928,0.071l-0.35,4.568Z" style="fill-rule:nonzero;"/><path d="M68.308,13.939l-0.064,0.831l0.578,0.045l-0.049,0.643l-0.578,-0.044l-0.133,1.728c-0.01,0.132 0.01,0.228 0.061,0.289c0.051,0.061 0.123,0.094 0.216,0.102c0.048,0.003 0.09,0.004 0.126,0.001c0.035,-0.002 0.077,-0.008 0.124,-0.017l0.029,0.668c-0.096,0.024 -0.189,0.041 -0.279,0.05c-0.09,0.009 -0.187,0.009 -0.291,0.001c-0.32,-0.024 -0.559,-0.13 -0.718,-0.317c-0.16,-0.187 -0.225,-0.468 -0.196,-0.845l0.133,-1.732l-0.502,-0.038l0.049,-0.643l0.502,0.038l0.064,-0.831l0.928,0.071Z" style="fill-rule:nonzero;"/><path d="M69.997,14.246l-0.392,0.862l-0.407,-0.031l0.133,-1.731l0.731,0.056l-0.065,0.844Z" style="fill-rule:nonzero;"/><path d="M71.855,17.522c0.008,-0.101 -0.035,-0.191 -0.128,-0.272c-0.092,-0.081 -0.27,-0.16 -0.533,-0.237c-0.4,-0.112 -0.698,-0.257 -0.892,-0.433c-0.194,-0.175 -0.281,-0.401 -0.259,-0.677c0.022,-0.293 0.166,-0.532 0.43,-0.717c0.265,-0.185 0.606,-0.261 1.023,-0.229c0.438,0.034 0.78,0.162 1.023,0.385c0.244,0.222 0.349,0.488 0.315,0.797l-0.008,0.018l-0.896,-0.069c0.01,-0.136 -0.025,-0.25 -0.106,-0.342c-0.082,-0.093 -0.207,-0.145 -0.377,-0.159c-0.15,-0.011 -0.271,0.016 -0.362,0.082c-0.091,0.065 -0.141,0.152 -0.15,0.261c-0.008,0.105 0.031,0.194 0.116,0.268c0.085,0.073 0.263,0.147 0.534,0.221c0.417,0.116 0.722,0.263 0.915,0.441c0.193,0.177 0.279,0.409 0.257,0.693c-0.023,0.305 -0.175,0.545 -0.454,0.718c-0.28,0.173 -0.637,0.243 -1.071,0.209c-0.458,-0.035 -0.811,-0.177 -1.059,-0.426c-0.248,-0.25 -0.355,-0.52 -0.319,-0.812l0.007,-0.019l0.849,0.066c-0.008,0.182 0.042,0.318 0.15,0.409c0.109,0.09 0.255,0.142 0.439,0.156c0.172,0.014 0.305,-0.01 0.4,-0.07c0.095,-0.06 0.147,-0.147 0.156,-0.262Z" style="fill-rule:nonzero;"/><path d="M75.142,18.714l0.211,-2.751l-0.512,-0.039l0.05,-0.643l0.511,0.039l0.029,-0.377c0.029,-0.38 0.163,-0.665 0.401,-0.854c0.239,-0.189 0.559,-0.268 0.961,-0.237c0.079,0.006 0.158,0.018 0.239,0.036c0.081,0.017 0.169,0.04 0.265,0.069l-0.132,0.674c-0.05,-0.012 -0.099,-0.023 -0.146,-0.033c-0.047,-0.01 -0.103,-0.017 -0.166,-0.022c-0.151,-0.012 -0.268,0.02 -0.351,0.096c-0.084,0.076 -0.131,0.19 -0.143,0.343l-0.029,0.376l0.683,0.052l-0.049,0.644l-0.683,-0.053l-0.211,2.751l-0.928,-0.071Z" style="fill-rule:nonzero;"/><path d="M79.234,16.406l-0.339,-0.036c-0.138,-0.01 -0.253,0.009 -0.347,0.059c-0.093,0.05 -0.167,0.124 -0.221,0.223l-0.176,2.293l-0.925,-0.071l0.261,-3.394l0.861,0.066l0.002,0.505c0.095,-0.172 0.209,-0.302 0.345,-0.392c0.136,-0.089 0.288,-0.128 0.455,-0.115c0.047,0.004 0.089,0.011 0.128,0.021c0.038,0.01 0.077,0.022 0.117,0.036l-0.161,0.805Z" style="fill-rule:nonzero;"/><path d="M81.021,19.232c-0.496,-0.038 -0.88,-0.226 -1.152,-0.562c-0.273,-0.337 -0.39,-0.746 -0.353,-1.229l0.009,-0.126c0.039,-0.504 0.211,-0.908 0.517,-1.213c0.306,-0.305 0.695,-0.438 1.167,-0.4c0.464,0.036 0.813,0.202 1.048,0.497c0.235,0.296 0.335,0.679 0.299,1.15l-0.039,0.499l-2.052,-0.158l-0.008,0.018c0,0.226 0.062,0.415 0.185,0.57c0.123,0.155 0.301,0.241 0.531,0.259c0.206,0.015 0.378,0.008 0.517,-0.022c0.138,-0.031 0.292,-0.084 0.459,-0.159l0.208,0.584c-0.148,0.102 -0.339,0.181 -0.571,0.238c-0.233,0.057 -0.487,0.075 -0.765,0.054Zm0.134,-2.824c-0.172,-0.013 -0.312,0.041 -0.422,0.163c-0.11,0.122 -0.184,0.288 -0.224,0.498l0.009,0.016l1.137,0.087l0.007,-0.081c0.014,-0.195 -0.02,-0.354 -0.103,-0.477c-0.083,-0.123 -0.218,-0.192 -0.404,-0.206Z" style="fill-rule:nonzero;"/><path d="M84.465,19.496c-0.495,-0.038 -0.88,-0.225 -1.152,-0.562c-0.272,-0.336 -0.39,-0.746 -0.353,-1.229l0.01,-0.126c0.038,-0.504 0.21,-0.908 0.516,-1.213c0.306,-0.305 0.695,-0.438 1.167,-0.399c0.464,0.035 0.813,0.201 1.048,0.497c0.236,0.295 0.335,0.679 0.299,1.149l-0.038,0.499l-2.053,-0.158l-0.008,0.019c0,0.225 0.062,0.415 0.185,0.569c0.124,0.155 0.301,0.241 0.532,0.259c0.205,0.016 0.377,0.008 0.516,-0.022c0.139,-0.03 0.292,-0.083 0.459,-0.159l0.208,0.584c-0.148,0.102 -0.339,0.182 -0.571,0.239c-0.232,0.057 -0.487,0.074 -0.765,0.053Zm0.134,-2.824c-0.172,-0.013 -0.312,0.042 -0.422,0.164c-0.109,0.122 -0.184,0.288 -0.223,0.497l0.008,0.016l1.137,0.088l0.007,-0.082c0.015,-0.194 -0.02,-0.353 -0.103,-0.476c-0.083,-0.124 -0.218,-0.192 -0.404,-0.207Z" style="fill-rule:nonzero;"/><path d="M87.511,18.079l-0.928,-0.071l0.23,-2.993l0.928,0.071l-0.23,2.993Zm-0.121,1.575l-0.928,-0.071l0.062,-0.803l0.928,0.071l-0.062,0.803Z" style="fill-rule:nonzero;"/></g></svg>